<mxfile host="app.diagrams.net" modified="2023-03-05T08:10:37.991Z" agent="5.0 (Macintosh; Intel Mac OS X 10_15_7) AppleWebKit/537.36 (KHTML, like Gecko) Chrome/110.0.0.0 Safari/537.36" etag="1olPVFkq1lBERUR258Nn" version="21.0.2" type="github">
  <diagram id="Oy1z0vKiiNwIBGVkZgbe" name="ページ1">
    <mxGraphModel dx="954" dy="616" grid="1" gridSize="10" guides="1" tooltips="1" connect="1" arrows="1" fold="1" page="1" pageScale="1" pageWidth="827" pageHeight="1169" math="0" shadow="0">
      <root>
        <mxCell id="0" />
        <mxCell id="1" parent="0" />
        <mxCell id="emHZ0ayzDIQ8x28v6bJh-1" value="AWS Cloud" style="points=[[0,0],[0.25,0],[0.5,0],[0.75,0],[1,0],[1,0.25],[1,0.5],[1,0.75],[1,1],[0.75,1],[0.5,1],[0.25,1],[0,1],[0,0.75],[0,0.5],[0,0.25]];outlineConnect=0;gradientColor=none;html=1;whiteSpace=wrap;fontSize=12;fontStyle=0;container=1;pointerEvents=0;collapsible=0;recursiveResize=0;shape=mxgraph.aws4.group;grIcon=mxgraph.aws4.group_aws_cloud_alt;strokeColor=#232F3E;fillColor=none;verticalAlign=top;align=left;spacingLeft=30;fontColor=#232F3E;dashed=0;" parent="1" vertex="1">
          <mxGeometry x="40" y="200" width="790" height="700" as="geometry" />
        </mxCell>
        <mxCell id="emHZ0ayzDIQ8x28v6bJh-2" value="ap-northeast-1(Tokyo)" style="points=[[0,0],[0.25,0],[0.5,0],[0.75,0],[1,0],[1,0.25],[1,0.5],[1,0.75],[1,1],[0.75,1],[0.5,1],[0.25,1],[0,1],[0,0.75],[0,0.5],[0,0.25]];outlineConnect=0;gradientColor=none;html=1;whiteSpace=wrap;fontSize=12;fontStyle=0;container=1;pointerEvents=0;collapsible=0;recursiveResize=0;shape=mxgraph.aws4.group;grIcon=mxgraph.aws4.group_region;strokeColor=#147EBA;fillColor=none;verticalAlign=top;align=left;spacingLeft=30;fontColor=#147EBA;dashed=1;" parent="emHZ0ayzDIQ8x28v6bJh-1" vertex="1">
          <mxGeometry x="20" y="40" width="680" height="640" as="geometry" />
        </mxCell>
        <mxCell id="emHZ0ayzDIQ8x28v6bJh-3" value="&lt;p style=&quot;margin: 0px; font-variant-numeric: normal; font-variant-east-asian: normal; font-stretch: normal; line-height: normal; font-family: &amp;quot;Helvetica Neue&amp;quot;;&quot; class=&quot;p1&quot;&gt;&lt;font color=&quot;#248814&quot;&gt;raisetech-plactice4-vpc&lt;/font&gt;&lt;/p&gt;&lt;p style=&quot;margin: 0px; font-variant-numeric: normal; font-variant-east-asian: normal; font-stretch: normal; line-height: normal; font-family: &amp;quot;Helvetica Neue&amp;quot;;&quot; class=&quot;p1&quot;&gt;&lt;font color=&quot;#248814&quot;&gt;(10.0.0.0/16)&lt;/font&gt;&lt;/p&gt;" style="points=[[0,0],[0.25,0],[0.5,0],[0.75,0],[1,0],[1,0.25],[1,0.5],[1,0.75],[1,1],[0.75,1],[0.5,1],[0.25,1],[0,1],[0,0.75],[0,0.5],[0,0.25]];outlineConnect=0;gradientColor=none;html=1;whiteSpace=wrap;fontSize=12;fontStyle=0;container=1;pointerEvents=0;collapsible=0;recursiveResize=0;shape=mxgraph.aws4.group;grIcon=mxgraph.aws4.group_vpc;strokeColor=#248814;fillColor=none;verticalAlign=top;align=left;spacingLeft=30;fontColor=#AAB7B8;dashed=0;" parent="emHZ0ayzDIQ8x28v6bJh-2" vertex="1">
          <mxGeometry x="20" y="80" width="640" height="540" as="geometry" />
        </mxCell>
        <mxCell id="emHZ0ayzDIQ8x28v6bJh-4" value="raisetech-plactice4-subnet-private1-ap-northeast-1a&lt;br&gt;(10.0.128.0/20)" style="points=[[0,0],[0.25,0],[0.5,0],[0.75,0],[1,0],[1,0.25],[1,0.5],[1,0.75],[1,1],[0.75,1],[0.5,1],[0.25,1],[0,1],[0,0.75],[0,0.5],[0,0.25]];outlineConnect=0;gradientColor=none;html=1;whiteSpace=wrap;fontSize=12;fontStyle=0;container=1;pointerEvents=0;collapsible=0;recursiveResize=0;shape=mxgraph.aws4.group;grIcon=mxgraph.aws4.group_security_group;grStroke=0;strokeColor=#147EBA;fillColor=#E6F2F8;verticalAlign=top;align=left;spacingLeft=30;fontColor=#147EBA;dashed=0;" parent="emHZ0ayzDIQ8x28v6bJh-3" vertex="1">
          <mxGeometry x="60" y="320" width="200" height="160" as="geometry" />
        </mxCell>
        <mxCell id="emHZ0ayzDIQ8x28v6bJh-5" value="ap-northeast-1c" style="fillColor=none;strokeColor=#147EBA;dashed=1;verticalAlign=top;fontStyle=0;fontColor=#147EBA;" parent="emHZ0ayzDIQ8x28v6bJh-3" vertex="1">
          <mxGeometry x="340" y="80" width="280" height="440" as="geometry" />
        </mxCell>
        <mxCell id="emHZ0ayzDIQ8x28v6bJh-6" value="ap-northeast-1a" style="fillColor=none;strokeColor=#147EBA;dashed=1;verticalAlign=top;fontStyle=0;fontColor=#147EBA;" parent="emHZ0ayzDIQ8x28v6bJh-3" vertex="1">
          <mxGeometry x="20" y="80" width="280" height="440" as="geometry" />
        </mxCell>
        <mxCell id="emHZ0ayzDIQ8x28v6bJh-7" value="raisetech-plactice4-subnet-public1-ap-northeast-1a&lt;br&gt;(10.0.0.0/20)" style="points=[[0,0],[0.25,0],[0.5,0],[0.75,0],[1,0],[1,0.25],[1,0.5],[1,0.75],[1,1],[0.75,1],[0.5,1],[0.25,1],[0,1],[0,0.75],[0,0.5],[0,0.25]];outlineConnect=0;gradientColor=none;html=1;whiteSpace=wrap;fontSize=12;fontStyle=0;container=1;pointerEvents=0;collapsible=0;recursiveResize=0;shape=mxgraph.aws4.group;grIcon=mxgraph.aws4.group_security_group;grStroke=0;strokeColor=#248814;fillColor=#E9F3E6;verticalAlign=top;align=left;spacingLeft=30;fontColor=#248814;dashed=0;" parent="emHZ0ayzDIQ8x28v6bJh-3" vertex="1">
          <mxGeometry x="57.5" y="120" width="202.5" height="160" as="geometry" />
        </mxCell>
        <mxCell id="emHZ0ayzDIQ8x28v6bJh-9" value="" style="sketch=0;points=[[0,0,0],[0.25,0,0],[0.5,0,0],[0.75,0,0],[1,0,0],[0,1,0],[0.25,1,0],[0.5,1,0],[0.75,1,0],[1,1,0],[0,0.25,0],[0,0.5,0],[0,0.75,0],[1,0.25,0],[1,0.5,0],[1,0.75,0]];outlineConnect=0;fontColor=#232F3E;gradientColor=#4D72F3;gradientDirection=north;fillColor=#3334B9;strokeColor=#ffffff;dashed=0;verticalLabelPosition=bottom;verticalAlign=top;align=center;html=1;fontSize=12;fontStyle=0;aspect=fixed;shape=mxgraph.aws4.resourceIcon;resIcon=mxgraph.aws4.rds;" parent="emHZ0ayzDIQ8x28v6bJh-3" vertex="1">
          <mxGeometry x="121" y="380" width="70" height="70" as="geometry" />
        </mxCell>
        <mxCell id="emHZ0ayzDIQ8x28v6bJh-10" value="" style="sketch=0;points=[[0,0,0],[0.25,0,0],[0.5,0,0],[0.75,0,0],[1,0,0],[0,1,0],[0.25,1,0],[0.5,1,0],[0.75,1,0],[1,1,0],[0,0.25,0],[0,0.5,0],[0,0.75,0],[1,0.25,0],[1,0.5,0],[1,0.75,0]];outlineConnect=0;fontColor=#232F3E;gradientColor=#F78E04;gradientDirection=north;fillColor=#D05C17;strokeColor=#ffffff;dashed=0;verticalLabelPosition=bottom;verticalAlign=top;align=center;html=1;fontSize=12;fontStyle=0;aspect=fixed;shape=mxgraph.aws4.resourceIcon;resIcon=mxgraph.aws4.ec2;" parent="emHZ0ayzDIQ8x28v6bJh-3" vertex="1">
          <mxGeometry x="121" y="180" width="70" height="70" as="geometry" />
        </mxCell>
        <mxCell id="emHZ0ayzDIQ8x28v6bJh-11" value="raisetech-plactice4-subnet-&lt;span style=&quot;color: rgb(20, 126, 186);&quot;&gt;public&lt;/span&gt;2-ap-northeast-1c&lt;br&gt;(10.0.16.0/20)" style="points=[[0,0],[0.25,0],[0.5,0],[0.75,0],[1,0],[1,0.25],[1,0.5],[1,0.75],[1,1],[0.75,1],[0.5,1],[0.25,1],[0,1],[0,0.75],[0,0.5],[0,0.25]];outlineConnect=0;gradientColor=none;html=1;whiteSpace=wrap;fontSize=12;fontStyle=0;container=1;pointerEvents=0;collapsible=0;recursiveResize=0;shape=mxgraph.aws4.group;grIcon=mxgraph.aws4.group_security_group;grStroke=0;strokeColor=#248814;fillColor=#E9F3E6;verticalAlign=top;align=left;spacingLeft=30;fontColor=#248814;dashed=0;" parent="emHZ0ayzDIQ8x28v6bJh-3" vertex="1">
          <mxGeometry x="380" y="120" width="200" height="160" as="geometry" />
        </mxCell>
        <mxCell id="emHZ0ayzDIQ8x28v6bJh-12" value="raisetech-plactice4-subnet-&lt;span style=&quot;color: rgb(36, 136, 20);&quot;&gt;private&lt;/span&gt;2-ap-northeast-1c&lt;br&gt;(10.0.144.0/20)" style="points=[[0,0],[0.25,0],[0.5,0],[0.75,0],[1,0],[1,0.25],[1,0.5],[1,0.75],[1,1],[0.75,1],[0.5,1],[0.25,1],[0,1],[0,0.75],[0,0.5],[0,0.25]];outlineConnect=0;gradientColor=none;html=1;whiteSpace=wrap;fontSize=12;fontStyle=0;container=1;pointerEvents=0;collapsible=0;recursiveResize=0;shape=mxgraph.aws4.group;grIcon=mxgraph.aws4.group_security_group;grStroke=0;strokeColor=#147EBA;fillColor=#E6F2F8;verticalAlign=top;align=left;spacingLeft=30;fontColor=#147EBA;dashed=0;" parent="emHZ0ayzDIQ8x28v6bJh-3" vertex="1">
          <mxGeometry x="380" y="320" width="200" height="160" as="geometry" />
        </mxCell>
        <mxCell id="emHZ0ayzDIQ8x28v6bJh-13" value="" style="endArrow=classic;startArrow=classic;html=1;rounded=0;fontColor=#248814;entryX=0.5;entryY=1;entryDx=0;entryDy=0;entryPerimeter=0;" parent="emHZ0ayzDIQ8x28v6bJh-3" source="emHZ0ayzDIQ8x28v6bJh-9" target="emHZ0ayzDIQ8x28v6bJh-10" edge="1">
          <mxGeometry width="50" height="50" relative="1" as="geometry">
            <mxPoint x="110" y="305" as="sourcePoint" />
            <mxPoint x="156" y="260" as="targetPoint" />
          </mxGeometry>
        </mxCell>
        <mxCell id="t6OXs4AfwnVpMfjVMFuf-5" value="" style="sketch=0;outlineConnect=0;fontColor=#232F3E;gradientColor=none;fillColor=#4D27AA;strokeColor=none;dashed=0;verticalLabelPosition=bottom;verticalAlign=top;align=center;html=1;fontSize=12;fontStyle=0;aspect=fixed;pointerEvents=1;shape=mxgraph.aws4.application_load_balancer;hachureGap=4;jiggle=2;curveFitting=1;fontFamily=Architects Daughter;fontSource=https%3A%2F%2Ffonts.googleapis.com%2Fcss%3Ffamily%3DArchitects%2BDaughter;" parent="emHZ0ayzDIQ8x28v6bJh-3" vertex="1">
          <mxGeometry x="286" y="181" width="68" height="68" as="geometry" />
        </mxCell>
        <mxCell id="t6OXs4AfwnVpMfjVMFuf-7" value="" style="endArrow=classic;startArrow=classic;html=1;rounded=0;fontColor=#248814;" parent="emHZ0ayzDIQ8x28v6bJh-3" target="emHZ0ayzDIQ8x28v6bJh-14" edge="1">
          <mxGeometry width="50" height="50" relative="1" as="geometry">
            <mxPoint x="319.5" y="180" as="sourcePoint" />
            <mxPoint x="319.5" y="50" as="targetPoint" />
            <Array as="points">
              <mxPoint x="320" y="170" />
              <mxPoint x="320" y="140" />
            </Array>
          </mxGeometry>
        </mxCell>
        <mxCell id="t6OXs4AfwnVpMfjVMFuf-9" value="" style="endArrow=classic;startArrow=classic;html=1;rounded=0;fontColor=#248814;entryX=1;entryY=0.5;entryDx=0;entryDy=0;entryPerimeter=0;" parent="emHZ0ayzDIQ8x28v6bJh-3" source="t6OXs4AfwnVpMfjVMFuf-5" target="emHZ0ayzDIQ8x28v6bJh-10" edge="1">
          <mxGeometry width="50" height="50" relative="1" as="geometry">
            <mxPoint x="176" y="400" as="sourcePoint" />
            <mxPoint x="176" y="270" as="targetPoint" />
          </mxGeometry>
        </mxCell>
        <mxCell id="pHbFeNXKBRzrq6ax7XMt-1" value="&lt;font style=&quot;font-size: 11px;&quot;&gt;ELB&lt;/font&gt;" style="text;html=1;align=center;verticalAlign=middle;resizable=0;points=[];autosize=1;strokeColor=none;fillColor=none;" parent="emHZ0ayzDIQ8x28v6bJh-3" vertex="1">
          <mxGeometry x="300" y="249" width="40" height="30" as="geometry" />
        </mxCell>
        <mxCell id="pHbFeNXKBRzrq6ax7XMt-3" value="&lt;font style=&quot;font-size: 11px;&quot;&gt;RDS&lt;/font&gt;" style="text;html=1;align=center;verticalAlign=middle;resizable=0;points=[];autosize=1;strokeColor=none;fillColor=none;fontSize=12;" parent="emHZ0ayzDIQ8x28v6bJh-3" vertex="1">
          <mxGeometry x="131" y="450" width="50" height="30" as="geometry" />
        </mxCell>
        <mxCell id="pHbFeNXKBRzrq6ax7XMt-5" value="EC2" style="text;html=1;align=center;verticalAlign=middle;resizable=0;points=[];autosize=1;strokeColor=none;fillColor=none;fontSize=11;" parent="emHZ0ayzDIQ8x28v6bJh-3" vertex="1">
          <mxGeometry x="138.75" y="250" width="40" height="30" as="geometry" />
        </mxCell>
        <mxCell id="emHZ0ayzDIQ8x28v6bJh-14" value="" style="sketch=0;outlineConnect=0;fontColor=#232F3E;gradientColor=none;fillColor=#4D27AA;strokeColor=none;dashed=0;verticalLabelPosition=bottom;verticalAlign=top;align=center;html=1;fontSize=12;fontStyle=0;aspect=fixed;pointerEvents=1;shape=mxgraph.aws4.internet_gateway;" parent="emHZ0ayzDIQ8x28v6bJh-2" vertex="1">
          <mxGeometry x="305.5" y="40" width="69" height="69" as="geometry" />
        </mxCell>
        <mxCell id="pHbFeNXKBRzrq6ax7XMt-4" value="Internet Gateway" style="text;html=1;align=center;verticalAlign=middle;resizable=0;points=[];autosize=1;strokeColor=none;fillColor=none;fontSize=11;" parent="emHZ0ayzDIQ8x28v6bJh-2" vertex="1">
          <mxGeometry x="285" y="109" width="110" height="30" as="geometry" />
        </mxCell>
        <mxCell id="t6OXs4AfwnVpMfjVMFuf-1" value="" style="sketch=0;points=[[0,0,0],[0.25,0,0],[0.5,0,0],[0.75,0,0],[1,0,0],[0,1,0],[0.25,1,0],[0.5,1,0],[0.75,1,0],[1,1,0],[0,0.25,0],[0,0.5,0],[0,0.75,0],[1,0.25,0],[1,0.5,0],[1,0.75,0]];outlineConnect=0;fontColor=#232F3E;gradientColor=#60A337;gradientDirection=north;fillColor=#277116;strokeColor=#ffffff;dashed=0;verticalLabelPosition=bottom;verticalAlign=top;align=center;html=1;fontSize=12;fontStyle=0;aspect=fixed;shape=mxgraph.aws4.resourceIcon;resIcon=mxgraph.aws4.s3;hachureGap=4;jiggle=2;curveFitting=1;fontFamily=Architects Daughter;fontSource=https%3A%2F%2Ffonts.googleapis.com%2Fcss%3Ffamily%3DArchitects%2BDaughter;" parent="emHZ0ayzDIQ8x28v6bJh-1" vertex="1">
          <mxGeometry x="710" y="300" width="68" height="68" as="geometry" />
        </mxCell>
        <mxCell id="mFCdaIwq2XjKB20qzGMQ-1" style="edgeStyle=none;curved=1;rounded=0;orthogonalLoop=1;jettySize=auto;html=1;exitX=0.5;exitY=0;exitDx=0;exitDy=0;exitPerimeter=0;fontSize=12;startSize=8;endSize=8;" parent="emHZ0ayzDIQ8x28v6bJh-1" source="t6OXs4AfwnVpMfjVMFuf-1" target="t6OXs4AfwnVpMfjVMFuf-1" edge="1">
          <mxGeometry relative="1" as="geometry" />
        </mxCell>
        <mxCell id="mFCdaIwq2XjKB20qzGMQ-7" value="" style="endArrow=classic;startArrow=classic;html=1;rounded=0;fontSize=12;startSize=8;endSize=8;edgeStyle=orthogonalEdgeStyle;" parent="emHZ0ayzDIQ8x28v6bJh-1" source="t6OXs4AfwnVpMfjVMFuf-1" target="emHZ0ayzDIQ8x28v6bJh-14" edge="1">
          <mxGeometry width="50" height="50" relative="1" as="geometry">
            <mxPoint x="710" y="140" as="sourcePoint" />
            <mxPoint x="760" y="90" as="targetPoint" />
            <Array as="points">
              <mxPoint x="744" y="110" />
            </Array>
          </mxGeometry>
        </mxCell>
        <mxCell id="pHbFeNXKBRzrq6ax7XMt-2" value="&lt;font style=&quot;font-size: 11px;&quot;&gt;S3&lt;/font&gt;" style="text;html=1;align=center;verticalAlign=middle;resizable=0;points=[];autosize=1;strokeColor=none;fillColor=none;fontSize=12;" parent="emHZ0ayzDIQ8x28v6bJh-1" vertex="1">
          <mxGeometry x="724" y="365" width="40" height="30" as="geometry" />
        </mxCell>
        <mxCell id="emHZ0ayzDIQ8x28v6bJh-15" value="Internet" style="sketch=0;outlineConnect=0;fontColor=#232F3E;gradientColor=none;strokeColor=#232F3E;fillColor=#ffffff;dashed=0;verticalLabelPosition=bottom;verticalAlign=top;align=center;html=1;fontSize=12;fontStyle=0;aspect=fixed;shape=mxgraph.aws4.resourceIcon;resIcon=mxgraph.aws4.internet;" parent="1" vertex="1">
          <mxGeometry x="370" y="80" width="60" height="60" as="geometry" />
        </mxCell>
        <mxCell id="emHZ0ayzDIQ8x28v6bJh-16" value="Users" style="sketch=0;outlineConnect=0;fontColor=#232F3E;gradientColor=none;strokeColor=#232F3E;fillColor=#ffffff;dashed=0;verticalLabelPosition=bottom;verticalAlign=top;align=center;html=1;fontSize=12;fontStyle=0;aspect=fixed;shape=mxgraph.aws4.resourceIcon;resIcon=mxgraph.aws4.users;" parent="1" vertex="1">
          <mxGeometry x="530" y="80" width="60" height="60" as="geometry" />
        </mxCell>
        <mxCell id="emHZ0ayzDIQ8x28v6bJh-17" value="" style="endArrow=classic;startArrow=classic;html=1;rounded=0;fontColor=#248814;" parent="1" edge="1">
          <mxGeometry width="50" height="50" relative="1" as="geometry">
            <mxPoint x="430" y="120" as="sourcePoint" />
            <mxPoint x="530" y="120" as="targetPoint" />
          </mxGeometry>
        </mxCell>
        <mxCell id="emHZ0ayzDIQ8x28v6bJh-18" value="" style="endArrow=classic;startArrow=classic;html=1;rounded=0;fontColor=#248814;" parent="1" source="emHZ0ayzDIQ8x28v6bJh-14" target="emHZ0ayzDIQ8x28v6bJh-15" edge="1">
          <mxGeometry width="50" height="50" relative="1" as="geometry">
            <mxPoint x="400" y="270" as="sourcePoint" />
            <mxPoint x="410" y="390" as="targetPoint" />
          </mxGeometry>
        </mxCell>
        <mxCell id="emHZ0ayzDIQ8x28v6bJh-19" value="" style="edgeStyle=orthogonalEdgeStyle;rounded=0;orthogonalLoop=1;jettySize=auto;html=1;fontColor=#248814;" parent="1" source="emHZ0ayzDIQ8x28v6bJh-2" target="emHZ0ayzDIQ8x28v6bJh-15" edge="1">
          <mxGeometry relative="1" as="geometry" />
        </mxCell>
      </root>
    </mxGraphModel>
  </diagram>
</mxfile>
